<?xml version="1.0" encoding="UTF-8" standalone="no"?>
<!-- Created with Inkscape (http://www.inkscape.org/) -->

<svg
   xmlns:dc="http://purl.org/dc/elements/1.1/"
   xmlns:cc="http://creativecommons.org/ns#"
   xmlns:rdf="http://www.w3.org/1999/02/22-rdf-syntax-ns#"
   xmlns:svg="http://www.w3.org/2000/svg"
   xmlns="http://www.w3.org/2000/svg"
   xmlns:sodipodi="http://sodipodi.sourceforge.net/DTD/sodipodi-0.dtd"
   xmlns:inkscape="http://www.inkscape.org/namespaces/inkscape"
   width="540"
   height="515.63611"
   viewBox="0 0 142.875 136.42872"
   version="1.1"
   id="svg968"
   inkscape:version="0.92.3 (2405546, 2018-03-11)"
   sodipodi:docname="badge1-trade.svg">
  <defs
     id="defs962" />
  <sodipodi:namedview
     id="base"
     pagecolor="#ffffff"
     bordercolor="#666666"
     borderopacity="1.0"
     inkscape:pageopacity="0.0"
     inkscape:pageshadow="2"
     inkscape:zoom="0.35"
     inkscape:cx="133.71763"
     inkscape:cy="79.120581"
     inkscape:document-units="mm"
     inkscape:current-layer="layer1"
     showgrid="false"
     fit-margin-top="20"
     fit-margin-left="20"
     fit-margin-right="20"
     fit-margin-bottom="20"
     units="px"
     inkscape:window-width="1280"
     inkscape:window-height="960"
     inkscape:window-x="0"
     inkscape:window-y="27"
     inkscape:window-maximized="1" />
  <metadata
     id="metadata965">
    <rdf:RDF>
      <cc:Work
         rdf:about="">
        <dc:format>image/svg+xml</dc:format>
        <dc:type
           rdf:resource="http://purl.org/dc/dcmitype/StillImage" />
        <dc:title></dc:title>
      </cc:Work>
    </rdf:RDF>
  </metadata>
  <g
     inkscape:label="Capa 1"
     inkscape:groupmode="layer"
     id="layer1"
     transform="translate(89.808028,-33.338602)">
    <path
       inkscape:connector-curvature="0"
       style="opacity:1;fill:#000000;stroke-width:0.78544563"
       d="m -18.370528,38.630269 -46.035324,31.4613 V 81.44094 c 0.742971,-0.158278 1.485939,-0.316571 2.22891,-0.474836 0.887787,-0.189219 1.775549,-0.378561 2.663353,-0.567684 0.536233,-0.114241 1.072552,-0.228085 1.608785,-0.342313 l -1.608785,-1.007082 v -2.450737 l 5.10913,2.711545 c 0.51779,-0.110264 1.035717,-0.219966 1.553505,-0.330258 l -6.662635,-5.028345 v -0.924163 l 1.066619,-0.739191 9.15235,5.934084 c 0.253053,-0.0539 0.505982,-0.108345 0.759035,-0.162298 l -7.926982,-7.148111 1.742022,-1.207649 9.740586,7.598844 c 0.07418,-0.01577 0.148352,-0.03168 0.222536,-0.04745 l -8.181409,-8.786653 1.763989,-1.223243 9.316067,8.674679 -7.661922,-9.821381 1.776748,-1.231747 8.209053,9.10345 -6.617985,-10.206922 1.780293,-1.233873 7.321738,9.701607 -5.733507,-10.80295 1.776748,-1.231748 6.583258,10.518046 -4.938327,-11.658368 1.765408,-1.224661 5.922026,11.600963 -4.156613,-12.824915 1.744856,-1.209069 5.262211,12.996424 -3.30332,-14.355031 1.709422,-1.184972 4.523021,14.755457 -2.279937,-16.311092 1.654849,-1.14741 3.612323,16.93192 -0.969521,-18.76395 1.571219,-1.089296 2.419556,19.588898 0.777461,-21.80576 0.73919,-0.512401 0.73919,0.512401 0.777462,21.80576 2.419555,-19.588898 1.571221,1.089296 -0.969522,18.76395 3.612324,-16.93192 1.6548473,1.14741 -2.2799363,16.311088 4.5230207,-14.755457 1.7094237,1.184972 -3.3033222,14.35503 5.2622124,-12.996423 1.74485652,1.209069 L -5.0658098,69.432489 0.85621589,57.831526 2.6216249,59.056186 -2.3167036,70.714555 4.2665563,60.196509 6.0433045,61.428257 0.30979527,72.231206 7.6315347,62.5296 l 1.7802934,1.233873 -6.617985,10.206922 8.2090529,-9.10345 1.776748,1.231747 -7.6619217,9.821381 9.3160647,-8.674679 1.76399,1.223243 -8.1665241,8.770351 c 0.075635,0.01605 0.1511569,0.03278 0.2267882,0.04896 l 9.7214479,-7.583961 1.742022,1.207649 -7.912097,7.134641 c 0.254643,0.05445 0.509355,0.108482 0.763993,0.16301 l 9.132507,-5.921326 1.066621,0.739191 v 0.924163 l -6.648462,5.017 c 0.518083,0.111088 1.036138,0.222586 1.554213,0.333797 l 5.094249,-2.703741 v 2.450736 l -1.602408,1.002831 c 0.534144,0.11479 1.068263,0.229621 1.602408,0.344439 1.630687,0.350501 3.261548,0.700042 4.892261,1.05031 V 70.091651 Z m 0,34.488221 -66.145833,14.090679 v 28.571871 l 66.145833,13.89436 66.145834,-13.89436 V 87.209169 Z m 0,3.914232 62.433581,12.140306 v 24.617232 l -62.433581,11.97162 -62.433581,-11.97162 V 89.173028 Z m 0,1.369953 -56.418006,10.621524 c 0.07292,0.201314 0.129328,0.408239 0.168676,0.618701 0.04324,0.233544 0.06529,0.470503 0.06591,0.70801 1.43e-4,2.178669 -1.766051,3.944861 -3.944712,3.94471 -0.246184,-7.27e-4 -0.491758,-0.02441 -0.733519,-0.0709 v 7.25228 l 0.733519,-0.004 v -6.704449 c 2.440147,1.92e-4 4.418324,-1.977985 4.418132,-4.418134 -0.0011,-0.265842 -0.0263,-0.531025 -0.07513,-0.792341 l 55.785124,-10.177777 55.785123,10.17786 c -0.04882,0.261315 -0.07403,0.526512 -0.07513,0.79234 -1.92e-4,2.440149 1.977985,4.418326 4.418133,4.418134 v 6.704447 l 0.733517,0.004 v -7.252291 c -0.24176,0.04649 -0.487334,0.07008 -0.733517,0.0709 -2.178662,1.5e-4 -3.944856,-1.766042 -3.944713,-3.944711 7.25e-4,-0.237507 0.02268,-0.474466 0.06591,-0.70801 0.03933,-0.210462 0.09575,-0.417386 0.168675,-0.618701 z m 60.86165,23.074355 -0.733517,0.004 v 6.70447 c -2.440148,-2e-4 -4.418325,1.97798 -4.418133,4.41812 0.0011,0.26584 0.0263,0.53102 0.07513,0.79235 l -55.785128,10.17783 -55.785123,-10.17786 c 0.04881,-0.26131 0.07403,-0.52651 0.07513,-0.79234 1.92e-4,-2.44015 -1.977983,-4.41832 -4.418131,-4.41813 v -6.70445 l -0.733519,-0.004 v 7.25227 c 0.24176,-0.0465 0.487335,-0.0702 0.733519,-0.0709 2.178662,-1.4e-4 3.944854,1.76605 3.944713,3.94472 -7.27e-4,0.23749 -0.02268,0.47447 -0.06591,0.708 -0.03935,0.21047 -0.09575,0.4174 -0.168677,0.61871 l 56.418006,10.62161 56.418006,-10.62153 c -0.07292,-0.20131 -0.129342,-0.40824 -0.168676,-0.6187 -0.04323,-0.23354 -0.06518,-0.4705 -0.06591,-0.70801 -1.43e-4,-2.17867 1.766051,-3.94486 3.944713,-3.94471 0.246183,7.3e-4 0.491757,0.0244 0.733518,0.0709 z M -18.359189,85.244611 c -0.162394,0.03154 -2.89571,0.562321 -3.058105,0.593905 0.07152,0.422489 0.154815,0.931282 0.228915,1.37208 0.136514,0.0069 0.269956,0.02743 0.374198,0.0694 0.225555,0.09106 0.0663,0.163422 -0.332385,0.177177 0.416286,2.479565 0.866464,5.214466 1.343723,8.163696 0.07352,-0.07159 0.143029,-0.11767 0.189229,-0.11767 0.08799,0 0.160172,0.163285 0.160168,0.362858 0,0.156084 -0.10722,0.286413 -0.254429,0.337349 0.06952,0.430662 0.13373,0.816094 0.20411,1.254422 0.10829,0.67441 0.09589,0.608896 0.194897,1.230326 0.28848,-0.0672 0.800758,-0.06871 1.54075,0.01769 1.132312,0.132208 1.185479,0.189493 0.59532,0.637147 -0.794016,0.602299 -0.806281,0.601984 -1.88235,0.0055 -0.06834,-0.03785 -0.111087,-0.07118 -0.165838,-0.106287 0.414208,2.608006 0.861797,5.445066 0.861797,5.445066 v 0.001 c 0.0063,1.0142 0,3.00778 0,3.00778 l -1.18072,-0.0865 c -0.31404,1.98701 -0.951096,5.798 -0.951096,5.798 0.716922,0.11493 2.131816,0.30688 2.131816,0.30688 v 0.001 c 0.481218,-0.0584 1.423811,-0.20765 1.423811,-0.20765 0.220102,1.27671 0.637136,3.74343 0.637136,3.74343 1.730308,-0.32183 5.170788,-0.99504 5.170788,-0.99504 -0.68101,-3.77987 -1.417584,-7.97048 -2.206233,-12.59458 -0.343249,0.32132 -0.661933,0.54926 -0.800847,0.54926 -0.198051,0 -0.291532,-0.0409 -0.208363,-0.0908 0.06868,-0.0413 0.484631,-0.37693 0.956766,-0.76613 -0.315204,-1.85062 -0.637368,-3.756535 -0.970232,-5.758315 -0.05585,-0.335867 -0.08784,-0.541201 -0.142453,-0.871006 -0.166539,-0.05842 -0.237416,-0.226605 -0.237421,-0.530833 0,-0.159102 0.03034,-0.284576 0.08788,-0.385542 -0.91613,-5.556299 -1.64918,-10.162979 -1.64918,-10.162979 l -2.061655,-0.401204 z m 8.9567462,1.740614 c 0.00631,0.02565 0,0.04251 0,0.04251 0.6884985,2.11406 1.415783,4.270553 2.1615847,6.438675 0.011932,-0.0027 0.025262,-0.0014 0.036851,-0.0055 0.5342792,-0.171705 0.548028,-0.142479 0.087882,0.18852 -0.018295,0.01371 -0.03201,0.02153 -0.049605,0.03401 1.0585935,3.071426 2.1652754,6.170735 3.3330868,9.26007 0.045079,0.011 0.08817,0.0195 0.1445781,0.0412 0.6286238,0.24123 0.7437706,0.50178 0.221829,0.50178 -0.054392,0 -0.1144337,-0.0163 -0.1750517,-0.0405 0.1708715,0.44952 0.340713,0.89944 0.5138172,1.34797 2.0885373,5.41175 3.75902839,9.19913 3.75902839,9.19913 1.58640481,-0.29647 4.73847001,-0.91282 4.73847001,-0.91282 0.00631,-0.004 0,-0.0326 0,-0.0326 -1.8738317,-3.9762 -3.9718292,-8.82761 -6.26788033,-14.801552 -0.85582617,-2.226724 -1.60197217,-4.265972 -2.23174527,-6.012045 -0.086634,0.243185 -0.2020486,0.451632 -0.3359308,0.534371 -0.1393748,0.08613 -0.1831294,-0.323127 -0.097098,-0.90927 0.028156,-0.191879 0.071219,-0.351598 0.118356,-0.492556 -0.741169,-2.070749 -1.2182849,-3.460671 -1.2182849,-3.460671 z m -12.8660202,0.167249 -0.0241,0.0055 c -0.5799,3.652949 -1.228799,7.600319 -1.9029,11.632857 0.210924,0.04594 0.306655,0.179166 0.206233,0.3416 -0.105684,0.17102 -0.237309,0.308754 -0.321753,0.346565 -0.238706,1.423584 -0.476755,2.842934 -0.72431,4.290554 0.478317,0.095 0.864632,0.22912 0.864632,0.30334 0,0.0765 -0.408221,0.13961 -0.907156,0.13961 -0.01125,0 -0.02068,-0.001 -0.0319,-0.003 -0.06409,0.37398 -0.122484,0.73196 -0.187099,1.10701 0.222141,0.0258 0.470929,0.16707 0.581854,0.34656 0.278424,0.45051 0.152836,0.45051 -0.544294,0 -0.0363,-0.0234 -0.05574,-0.0428 -0.08504,-0.0645 -1.017522,5.89821 -1.834157,10.36143 -1.834157,10.36143 1.701642,0.33603 5.085744,0.97377 5.085744,0.97377 0.132783,-0.80943 0.306531,-1.92964 0.453577,-2.84265 -0.2395,0.12548 -0.417161,0.10903 -0.520907,-0.0588 -0.131399,-0.21257 0.0033,-0.38624 0.296245,-0.38624 0.105149,0 0.209317,-0.0332 0.308292,-0.0779 0.297416,-1.8521 0.58257,-3.60327 0.905028,-5.6683 0.479258,-3.06924 0.861799,-5.58539 0.861799,-5.58539 -0.45328,-2.872961 -0.987522,-6.185845 -1.547837,-9.582538 -0.188408,-1.14217 -0.193325,-1.158641 -0.339476,-2.032596 -0.06102,0.05074 -0.178811,0.0864 -0.317504,0.0864 -0.199568,0 -0.362862,-0.173488 -0.362862,-0.384842 0,-0.211354 0.163294,-0.282806 0.362862,-0.159458 0.114996,0.07104 0.214049,0.157031 0.280652,0.235285 -0.228477,-1.364632 -0.555633,-3.324582 -0.555633,-3.324582 z m -10.739873,1.163001 c -0.733664,-0.0096 -1.562598,0.08146 -2.491844,0.262235 l -1.476962,0.287017 c 0.0059,1.95419 -7.27e-4,5.836993 -7.27e-4,5.836993 0.523945,-0.04608 1.552798,-0.163011 1.552798,-0.163011 1.427271,-0.150105 1.852179,0.704033 1.851874,2.647759 -3.3e-4,2.134207 -0.575453,2.930882 -1.852582,2.958182 -0.511465,0.0202 -1.553504,0.034 -1.553504,0.034 0.0059,1.83499 -7.27e-4,5.47623 -7.27e-4,5.47623 0.273298,0.0261 0.800141,0.0496 0.800141,0.0496 2.354157,0.14695 2.57973,1.02072 2.604531,3.34655 0.0089,0.62405 0.02105,1.26206 0.03331,1.9022 0.373085,-0.38815 0.751452,-0.51598 1.119063,-0.37491 0.885348,0.33973 0.792452,0.63927 -0.421686,1.35648 -0.271776,0.16054 -0.47859,0.27965 -0.664066,0.36995 0.02079,0.7704 0.04263,1.54777 0.08292,2.45995 1.735076,0.34156 5.184247,0.9922 5.184254,0.9922 0.0063,-0.0836 0,-0.2849 0,-0.2849 -0.200195,-2.36638 -0.250095,-3.34175 -0.299789,-7.94754 -0.02485,-3.06727 -0.449467,-5.39237 -2.603109,-5.98013 0.0063,-0.0165 0,-0.0779 0,-0.0779 1.803128,-0.74842 2.704068,-2.627724 2.704456,-6.683906 8.8e-5,-1.0694 -0.08024,-1.987804 -0.240962,-2.774618 -0.04284,0.03278 -0.0677,0.05801 -0.115517,0.09285 -1.766958,1.286501 -1.905735,1.321802 -1.905739,0.481927 0,-0.549553 0.163724,-0.722931 0.544294,-0.5769 0.370232,0.142069 0.544293,-0.01947 0.544293,-0.50531 0,-0.461273 0.223267,-0.70251 0.581858,-0.698081 -0.681946,-1.693985 -1.972857,-2.462051 -3.975894,-2.486888 z m 33.36419684,0.566271 c 0.003566,1.979713 0.001089,3.758591 -7.2549e-4,5.919898 0.0880881,0.116847 0.1488323,0.248863 0.14882818,0.360032 0,0.111225 -0.0605906,0.206156 -0.14882818,0.268598 -7.255e-4,1.000472 -7.255e-4,3.086458 -7.255e-4,3.086458 0.93847515,2.391858 1.97910945,4.949058 3.12118155,7.591048 1.0385634,2.40256 1.8695911,4.19064 1.8695911,4.19064 0.015059,0.005 0.026236,-0.005 0.026236,-0.005 0.00727,-6.03301 0.00535,-15.609889 0.00494,-18.118309 -0.032366,0.07817 -0.093039,0.168592 -0.184265,0.278527 -0.3492914,0.42087 -0.5362171,0.432212 -0.9943301,0.06021 -0.4801029,-0.389889 -0.5261753,-0.357317 -0.3104177,0.217566 0.187455,0.49955 0.1166553,0.622624 -0.2721475,0.473424 -0.3075609,-0.118081 -0.5933447,0.05335 -0.6881611,0.413176 -0.09474,0.359388 -0.1795075,0.205814 -0.2041099,-0.369948 -0.0487,-1.139783 1.0274849,-1.906957 2.1679606,-1.544991 0.2747161,0.08722 0.4294333,0.167289 0.4854707,0.269311 -3.98e-5,-0.269448 7.255e-4,-2.115513 7.255e-4,-2.115513 L 1.1524268,89.035678 c 0.05553,0.227468 0.034176,0.461945 -0.066611,0.562719 -0.12057771,0.12055 -0.20639334,-0.09367 -0.190645,-0.47625 0.002194,-0.05595 0.008914,-0.08983 0.0134402,-0.13399 z m -38.33371284,0.17859 c -0.02403,0.0041 -4.859012,0.944297 -4.883048,0.948974 0.0036,6.864811 -0.0047,17.94507 -0.0064,20.56764 0.01967,-0.007 0.03386,-0.01 0.05386,-0.0163 0.629275,-0.19688 0.841154,-0.0366 1.158042,0.87241 0.34022,0.97593 0.290053,1.18186 -0.407513,1.6733 -0.0029,0.001 -0.0036,0.003 -0.0064,0.005 0.688106,0.13289 0.966236,0.18524 1.653433,0.31608 -0.129547,-0.0891 0.04321,-0.10245 0.55138,-0.11836 0.449042,-0.014 0.816439,0.13778 0.816439,0.33735 0,0.0167 -0.0037,0.0258 -0.0043,0.0418 0.260216,0.0492 1.068742,0.20483 1.068742,0.20483 0.0011,-1.01334 1.1e-5,-1.82598 7.25e-4,-3.04252 -0.251289,-0.33277 -0.235037,-0.69552 0,-1.14953 0.0041,-8.61264 0.0049,-20.640643 0.0049,-20.640643 z m 31.3323135,0.966693 c 0.3160393,0.01673 0.664154,0.19598 0.9808611,0.577599 0.2807464,0.338268 0.3066764,0.5443 0.068751,0.5443 -0.2105694,0 -0.4863265,0.32657 -0.6130414,0.725716 -0.3018983,0.951291 -1.1317136,0.929897 -1.3841204,-0.03552 -0.288011,-1.101327 0.2522656,-1.849096 0.9475528,-1.812176 z m -10.3685075,0.0517 c 0.17344,0 0.471064,0.11479 0.826361,0.344439 0.469072,0.303131 0.459311,0.352393 -0.06945,0.35718 -0.337498,0.0027 -0.714327,-0.157607 -0.837703,-0.35718 -0.141891,-0.229622 -0.09264,-0.344439 0.08079,-0.344439 z m 21.8936397,0.344439 c 0.2113305,0 0.2835441,0.163284 0.1601673,0.362858 -0.1233344,0.199573 -0.2960916,0.362857 -0.3841221,0.362857 -0.087992,0 -0.1601673,-0.163284 -0.1601714,-0.362857 0,-0.199574 0.1727586,-0.362858 0.3841262,-0.362858 z m -37.3266287,0.03607 c 0.537073,-0.01989 1.077233,0.127133 1.200563,0.326706 0.254947,0.412491 0.01814,0.412491 -1.270018,0 l -0.907156,-0.290569 z m 23.0438845,7.27e-4 c 3.415e-4,0.510988 -2.51e-4,0.964169 0,1.530824 0.078817,0.079 0.1591881,0.150845 0.2360015,0.233873 0.205011,0.221571 0.3946356,0.409418 0.5726441,0.571935 -0.4498226,-1.334913 -0.7824221,-2.333094 -0.7824221,-2.333094 z m 18.1154769,0.04471 c 7.255e-4,0.989678 -7.255e-4,1.763134 -7.255e-4,2.965263 0.086141,-0.0069 0.1382036,0.0358 0.1381967,0.135362 0,0.09202 -0.055667,0.19528 -0.1389071,0.291981 -5.07e-5,3.804233 -7.269e-4,5.660159 -0.00288,9.217559 0.084248,0.0815 0.1417446,0.16045 0.1417405,0.21119 0,0.0507 -0.057491,0.0939 -0.1417405,0.12329 -0.00219,3.40072 -0.00357,8.98865 -0.00357,8.98865 1.6710065,-0.31387 4.9936105,-0.96103 4.9936105,-0.96103 0.0069,-4.99414 0.0049,-10.93022 0.0049,-14.996413 -0.07923,-0.0041 -0.132125,-0.0491 -0.130397,-0.139613 0.0022,-0.08928 0.05428,-0.245311 0.13111,-0.416728 -1.8e-5,-0.764021 7.26e-4,-2.824937 7.26e-4,-3.09071 -0.325073,0.221338 -0.627397,0.442841 -0.834159,0.625093 l -0.878097,0.774621 0.696667,-0.986524 c 0.332099,-0.470269 0.755961,-0.86932 1.016296,-0.971657 0,-0.03223 5e-6,-0.61419 0,-0.621541 -0.278312,0.09175 -0.501061,0.03031 -0.501061,-0.153081 0,-0.04087 0.0133,-0.07968 0.03331,-0.116161 l -2.228911,-0.433021 c 0.458095,1.106539 0.184512,1.64918 -0.852584,1.64918 -0.7650229,0 -0.8753188,-0.143728 -0.7625776,-0.99788 h 7.255e-4 c 0.03345,-0.253525 0.065775,-0.598801 0.09356,-0.946834 z m -58.6277794,1.087874 c -0.768797,0.0096 -1.671551,0.114241 -2.727846,0.319629 l -1.426645,0.277102 c 0.0051,1.24138 -3.62e-4,3.296906 -0.0015,3.707998 0.281526,0.04965 0.482371,0.167563 0.503188,0.308301 0.465651,-0.05129 1.047482,-0.115476 1.047482,-0.115476 1.402223,-0.154425 1.803556,0.389451 1.802972,1.707289 -7.26e-4,1.290149 -0.477429,1.896164 -1.854709,1.946839 -0.494338,0.0251 -1.501059,0.05527 -1.501059,0.05527 0.0051,0.997509 -0.0011,2.589039 -0.0022,2.973779 0.02083,-0.0218 0.02848,-0.0333 0.05316,-0.0581 0.24613,-0.24798 0.538876,-0.35907 0.650601,-0.24734 0.111732,0.11178 -0.08935,0.31448 -0.447203,0.45074 -0.110607,0.0421 -0.188681,0.0669 -0.256554,0.0865 -1.8e-5,0.005 0,0.11973 0,0.11973 0.548879,0.0243 1.627212,0.0524 1.627212,0.0524 1.527578,0.0491 1.978576,0.68154 1.978025,1.94968 -7.26e-4,1.43807 -0.502336,1.80726 -1.85471,1.66618 -0.577984,-0.0533 -1.751942,-0.18285 -1.751942,-0.18285 0.0015,0.40599 -7.26e-4,0.67516 -7.26e-4,1.21119 0.06538,-0.0924 0.137778,-0.18454 0.219702,-0.26647 0.332055,-0.33206 0.579825,-0.29592 1.082208,0.15876 0.511236,0.46264 0.762849,0.49741 1.17009,0.15946 0.309522,-0.2569 0.603665,-0.29293 0.729978,-0.0886 0.116408,0.18835 -0.0455,0.4413 -0.360029,0.56201 -0.677536,0.25999 -2.268873,0.27493 -2.841949,0.0893 -0.0011,0.97386 -0.0011,2.15262 -0.0015,2.24451 0.08969,-0.31464 0.153788,-0.67628 0.153788,-0.90432 0,-0.29968 0.20411,-0.46994 0.453579,-0.37846 0.249468,0.0915 0.412762,0.35025 0.362862,0.57477 -0.04989,0.22452 0.235864,0.40822 0.635009,0.40822 0.737111,0 0.89517,0.30392 0.460668,0.82707 0.07197,0.0137 0.388375,0.0745 0.388375,0.0745 0.715594,0.13701 1.356819,0.20425 1.939753,0.21262 0.04249,-0.0154 0.08732,-0.0255 0.135362,-0.0255 0.05377,0 0.09843,0.011 0.133236,0.0298 1.30497,-0.0276 2.263957,-0.41049 2.909986,-1.18214 -0.0975,-0.0779 -0.168687,-0.22029 -0.172926,-0.38979 -0.0062,-0.24948 -0.377228,-1.19969 -0.824238,-2.11128 l -0.812894,-1.65697 0.807934,0.1538 c 0.64027,0.12233 0.857356,0.48516 1.046771,1.7484 0.105464,0.70312 0.280967,1.29661 0.430898,1.50673 0.385158,-0.81223 0.568642,-1.88924 0.569099,-3.25159 0.0011,-2.77484 -0.5497,-4.63374 -2.703041,-5.24095 0.0063,-0.0123 0,-0.0602 0,-0.0602 1.502806,-0.73221 2.405182,-2.187994 2.40609,-4.827058 0.0011,-2.914327 -0.825168,-4.638896 -4.156614,-4.595311 z m 64.641229,0.08078 c 8.3e-5,0.02263 -7.6e-5,0.04416 0,0.06734 0.02068,-0.01879 0.04326,-0.03607 0.06307,-0.05527 z m 0.689583,0.1389 c -0.117506,0.07447 -0.245469,0.150572 -0.396883,0.227496 -0.09084,0.04622 -0.194437,0.107659 -0.2927,0.162297 0.0026,1.637208 -0.0015,4.121188 -0.0015,4.121188 0.218719,0.02949 0.636423,0.06514 0.636423,0.06514 1.832909,0.187971 2.293679,1.123326 2.444361,2.381986 0.07616,0.556891 0.126598,1.817544 0.126146,2.708724 -3.62e-4,0.89115 -0.05157,2.15409 -0.128286,2.71083 -0.151927,1.25837 -0.613861,2.19302 -2.446483,2.37774 -0.205979,0.0277 -0.637135,0.0645 -0.637135,0.0645 0.0058,1.55593 -0.0015,4.64919 -0.0015,4.64919 0.124967,-0.017 0.355068,-0.0687 0.355068,-0.0687 0.632653,-0.12179 1.215708,-0.25472 1.754069,-0.40042 -0.192484,-0.21292 -0.385676,-0.55388 -0.581856,-1.02339 -0.444761,-1.06452 -0.467774,-1.51681 -0.11907,-2.35861 0.51991,-1.25523 0.753234,-1.28149 1.96527,-0.22467 0.878302,0.76586 0.908006,0.89513 0.47413,2.08647 -0.172653,0.47405 -0.342675,0.84742 -0.510274,1.13251 1.02108,-0.36768 1.84427,-0.80401 2.503181,-1.32953 -0.137518,-0.18871 -0.116409,-0.20385 0.07513,-0.0638 1.115918,-0.91959 1.762234,-2.10283 2.135361,-3.6577 0.280953,-1.15632 0.383861,-2.39444 0.384834,-3.88943 0.0011,-1.494974 -0.09962,-2.73047 -0.379166,-3.887301 -0.755573,-3.166001 -2.631927,-4.808269 -7.359298,-5.784535 z m -33.801479,0.0624 c 0.211368,0 0.384127,0.163285 0.384122,0.362858 0,0.199587 -0.07216,0.362871 -0.160167,0.362871 -0.08803,0 -0.260749,-0.163284 -0.384126,-0.362871 -0.123334,-0.199573 -0.05116,-0.362858 0.160171,-0.362858 z m -36.686656,0.509562 c 0.891848,-0.173475 -5.699063,1.108267 -4.807218,0.934793 v 0.0014 c 0.0026,5.46747 -0.01138,16.379836 -0.01138,16.379836 1.609495,0.31389 4.809348,0.92063 4.809341,0.92063 0.0063,-4.02461 0.0058,-8.0228 0.0064,-12.084314 -0.275554,0.05239 -0.639846,0.0934 -1.083623,0.106973 -1.289725,0.0395 -1.720185,-0.05801 -1.450034,-0.328132 0.353483,-0.353491 1.754642,-0.43058 2.533657,-0.228209 1.26e-4,-0.864794 0.0015,-2.188544 0.0015,-2.708707 -0.112925,0.07502 -0.238303,0.124802 -0.345855,0.124802 -0.199574,0 -0.261529,-0.163284 -0.138199,-0.362857 0.103325,-0.167139 0.303872,-0.302803 0.484054,-0.34444 1.1e-5,-0.241457 7.25e-4,-1.423961 7.25e-4,-1.519496 -0.222535,-0.03511 -0.237754,-0.106698 -0.0085,-0.198435 0.0029,-0.0011 0.0062,-0.0014 0.0092,-0.0027 z m 45.6696255,0.07584 c 3.634e-4,1.395037 -7.255e-4,2.084779 -7.255e-4,3.672574 0.1817251,-0.06199 0.4930425,0.02688 0.7597425,0.315378 0.3843072,0.415768 0.3717489,0.506722 -0.06945,0.506722 -0.2623169,0 -0.5472901,-0.122333 -0.6902869,-0.279226 1.37e-5,0.360142 0,0.460916 0,0.824939 0.1518796,0.02537 0.3182336,0.07241 0.5024767,0.146005 0.8249672,0.329723 0.8028361,0.351872 -0.3734906,0.373486 -0.051717,0.0011 -0.081492,-0.0027 -0.1289847,-0.0027 -2.88e-5,0.955379 1.152e-4,1.202802 0,2.155911 0.2659773,0.0684 0.4734225,0.16544 0.4734184,0.26718 0,0.0514 -0.1960581,0.0782 -0.4734184,0.0779 -9.06e-5,0.66106 1.193e-4,0.85549 0,1.50036 0.0085,0.004 0.011109,0.005 0.019845,0.01 0.4490423,0.2176 0.8164409,0.47138 0.8164409,0.56414 0,0.26368 -0.1852442,0.18922 -0.8362816,-0.32531 -7.255e-4,4.25278 -7.255e-4,8.23142 -0.00151,9.95108 0.2703714,0.0392 0.4748406,0.17301 0.4748379,0.34019 0,0.37357 -0.053816,0.41234 -0.4748379,0.15521 -1.961e-4,0.48875 0,3.21189 0,3.21189 1.6797141,-0.31304 5.0191218,-0.96598 5.0191218,-0.96598 0.00466,-2.37127 0.00178,-4.86694 7.255e-4,-7.1311 -0.046245,0.008 -0.1024472,0.0123 -0.1693834,0.0123 -0.1878171,0 -0.4407986,-0.16133 -0.5627203,-0.35861 -0.1271058,-0.20569 0.017925,-0.26707 0.3408913,-0.14316 0.1697331,0.0651 0.2987919,0.13179 0.3912124,0.19419 -3.62e-4,-0.86213 0,-2.90928 0,-2.90928 -0.7572862,-2.00607 -1.6032627,-4.33837 -2.5003489,-6.882335 -0.01499,-0.0192 -0.033642,-0.03662 -0.046067,-0.05664 -0.047425,-0.0768 -0.056847,-0.133579 -0.033313,-0.167975 -0.1819788,-0.517159 -0.3495561,-0.97414 -0.5372072,-1.515231 -0.2923942,-0.843111 -0.4997777,-1.463993 -0.7455686,-2.187802 -0.2298232,-0.188259 -0.5065595,-0.531711 -0.9177841,-1.070868 -0.073002,-0.09573 -0.157552,-0.188232 -0.237421,-0.282779 z m -41.9127265,0.165835 c 0.337498,-0.01399 0.714368,0.137776 0.837701,0.337349 0.257886,0.41725 0.245295,0.41725 -0.725725,0 -0.59161,-0.254225 -0.612182,-0.316557 -0.111979,-0.337349 z m 14.901454,0.114105 c 0.09575,-0.01797 0.201221,0 0.294114,0.05746 0.474769,0.293421 0.421214,0.407512 -0.190644,0.407512 -0.29058,0 -0.44214,-0.138722 -0.337346,-0.308288 0.0524,-0.08476 0.138117,-0.138585 0.233876,-0.15662 z m -22.953881,0.586116 c 0.01568,-0.02153 0.155469,0.08201 0.430192,0.296946 0.428613,0.335401 0.810261,0.372732 1.274979,0.123979 0.469543,-0.251291 0.867952,-0.205965 1.362861,0.15592 0.643535,0.470585 0.581428,0.511701 -0.777462,0.511701 -0.974424,0 -1.645092,-0.215894 -1.973772,-0.635008 -0.223614,-0.285138 -0.332465,-0.432061 -0.316798,-0.453579 z m 79.669545,1.464199 c 0.211332,-0.0069 0.701196,0.226481 1.088587,0.519491 0.895909,0.677619 0.609871,0.683968 -0.565556,0.01234 -0.498936,-0.28522 -0.734361,-0.524469 -0.523031,-0.531532 z m -35.249381,0.151668 c 0.0841,0.01701 0.09914,0.08695 0.02765,0.2027 -0.213109,0.344782 -0.904322,0.509329 -0.904322,0.215441 0,-0.07845 0.253692,-0.239756 0.563431,-0.358606 0.08072,-0.031 0.149866,-0.05033 0.206944,-0.05884 0.04282,-0.0069 0.07828,-0.0069 0.106301,-7.27e-4 z m 12.0354064,0 c 0.028046,-0.0055 0.063498,-0.0055 0.1063147,7.27e-4 0.05708,0.0082 0.1262007,0.02784 0.2069433,0.05884 0.6286239,0.241224 0.7437706,0.501772 0.221829,0.501772 -0.1878171,0 -0.4407972,-0.161323 -0.5627189,-0.358606 -0.071507,-0.11575 -0.056462,-0.185639 0.027648,-0.2027 z m -14.3940124,0.24309 c 0.126063,0.0055 0.234537,0.03826 0.294826,0.09847 0.120577,0.12055 -0.09372,0.206403 -0.476256,0.190645 -0.4227,-0.01742 -0.508451,-0.103133 -0.218996,-0.218993 0.130973,-0.05239 0.274368,-0.07529 0.400426,-0.07022 z m -4.798712,0.717226 c 0.437285,-0.01989 0.895798,0.127133 1.019131,0.326706 0.123376,0.199587 0.173629,0.34662 0.111979,0.32672 -0.06169,-0.01989 -0.520196,-0.166932 -1.019134,-0.32672 -0.844446,-0.270436 -0.85207,-0.293037 -0.111979,-0.326706 z m 16.5633908,0.102036 c 0.098086,0.0027 0.1085364,0.14477 0.015607,0.386954 -0.2412309,0.62863 -0.5010586,0.743777 -0.5010613,0.221831 0,-0.187806 0.1613248,-0.44151 0.3586131,-0.563432 0.051429,-0.03182 0.094164,-0.04622 0.126859,-0.04539 z m -12.6980548,1.009207 c 0.22455,0.02222 0.514324,0.161845 0.967395,0.429483 0.59952,0.354149 1.085046,0.469803 1.085042,0.257969 0,-0.21086 0.163295,-0.383416 0.362861,-0.383416 0.544186,0 0.436945,0.619676 -0.145993,0.843373 -0.279948,0.107384 -0.798069,-0.01618 -1.150952,-0.274276 -0.352883,-0.258038 -0.981274,-0.387777 -1.396172,-0.288443 -0.619587,0.148322 -0.672441,0.09353 -0.296951,-0.307589 0.190866,-0.20392 0.350213,-0.299318 0.57477,-0.277101 z m 52.362732,0.204113 c -0.37303,0 -0.712712,0.113693 -1.019131,0.340174 -0.296429,0.221489 -0.510076,0.50712 -0.639969,0.856839 l 2.260802,1.476255 c -0.129903,0.154876 -0.269679,0.272306 -0.419559,0.352226 -0.178191,0.09 -0.367138,0.13468 -0.566973,0.13468 -0.171532,0 -0.341831,-0.0377 -0.511694,-0.11273 -0.169862,-0.0767 -0.307093,-0.17655 -0.410346,-0.299789 l -0.372076,0.332399 c 0.03663,0.045 0.07765,0.088 0.122607,0.12974 0.04496,0.0417 0.08969,0.0811 0.134649,0.11767 0.04497,0.035 0.09041,0.0656 0.135362,0.0922 0.04663,0.0266 0.100678,0.0546 0.162297,0.083 0.233146,0.11164 0.479395,0.16725 0.73919,0.16725 0.37303,0 0.706189,-0.10766 0.999287,-0.32245 0.294764,-0.2165 0.510962,-0.50423 0.649183,-0.863935 l -2.250172,-1.476254 0.0971,-0.112733 c 0.0133,-0.01659 0.02917,-0.03305 0.04748,-0.04965 0.02,-0.0166 0.0391,-0.03209 0.05741,-0.04539 0.06827,-0.05993 0.143062,-0.110676 0.224662,-0.152368 0.173195,-0.09161 0.360051,-0.137502 0.559886,-0.137502 0.08327,0 0.16737,0.01097 0.252305,0.03045 0.08659,0.02002 0.17396,0.04882 0.262224,0.08722 0.179855,0.07666 0.31918,0.173762 0.417433,0.291995 l 0.362154,-0.331685 c -0.156543,-0.181511 -0.349915,-0.325266 -0.57973,-0.430182 -0.123239,-0.055 -0.243452,-0.09477 -0.360029,-0.119728 -0.114913,-0.02496 -0.232787,-0.03758 -0.354357,-0.03758 z m -4.808633,0.02263 v 1.528698 h -0.367115 v 0.509562 h 0.367115 v 1.528704 h 2.815016 v -0.891571 h -0.489722 v 0.382001 H 29.8037 v -1.019134 h 0.979445 V 98.768955 H 29.8037 v -1.019137 h 1.835571 v 0.382003 h 0.489722 v -0.891564 z m 6.418835,0 v 0.891564 h 0.489015 v -0.382003 h 0.734938 v 3.057403 h 0.489722 v -3.057403 h 0.73423 v 0.382003 h 0.489723 v -0.891564 z m -38.1317284,0.07721 c 0.01872,-0.01865 0.1658273,0.09038 0.4535777,0.316078 0.3492544,0.273906 0.6350121,0.55966 0.6350093,0.635008 0,0.29866 -0.2977469,0.106973 -0.7717907,-0.497507 -0.2256828,-0.287771 -0.3355207,-0.434859 -0.3167963,-0.453579 z m -73.5278146,0.50601 v 0.912122 h 0.500355 v -0.391219 h 0.750529 v 3.126151 h 0.501062 v -3.126151 h 0.75053 v 0.391219 h 0.501062 v -0.912122 z m 3.47625,0 v 1.563423 h -0.375621 v 0.520917 h 0.375621 v 1.562714 h 0.500354 v -1.562714 h 0.754072 l 0.773208,1.562714 h 0.600285 l -0.750531,-1.562714 c 0.27583,0 0.511494,-0.102995 0.707299,-0.309001 0.195804,-0.207719 0.293407,-0.452591 0.293407,-0.733519 0,-0.284342 -0.09916,-0.528501 -0.298368,-0.732819 -0.199211,-0.206019 -0.433319,-0.309001 -0.702338,-0.309001 z m 3.264342,0 v 3.647054 h 1.253719 c 0.493768,0 0.908375,-0.17781 1.243798,-0.53366 0.337121,-0.35756 0.506022,-0.78644 0.506022,-1.287037 0,-0.50568 -0.170451,-0.936836 -0.510987,-1.292686 -0.340524,-0.355863 -0.752449,-0.533671 -1.235996,-0.533671 z m -2.763988,0.520903 h 1.377034 c 0.131111,0 0.246812,0.05088 0.34727,0.153095 0.102159,0.102173 0.153085,0.224794 0.153081,0.367822 0,0.136185 -0.04936,0.257298 -0.14812,0.362858 -0.09704,0.105602 -0.214318,0.158745 -0.352231,0.158745 h -1.377034 z m 3.264343,0 h 0.756201 c 0.345637,0 0.640288,0.127956 0.883766,0.38343 0.245182,0.255391 0.367822,0.561635 0.367822,0.919199 0,0.359252 -0.122635,0.666632 -0.367822,0.922042 -0.243478,0.25369 -0.538132,0.38058 -0.883766,0.38058 h -0.756201 z m 37.697284,0.451467 c 0.04701,0.0014 0.08617,0.01536 0.114105,0.0432 0.111732,0.111773 -0.08935,0.314473 -0.447202,0.45074 -0.517151,0.196913 -0.559113,0.15496 -0.203399,-0.203399 0.184595,-0.185996 0.395476,-0.294738 0.536495,-0.290583 z m -26.971585,0.335923 c 0.199574,0 0.464195,0.163284 0.587525,0.362857 0.123376,0.199587 0.06067,0.362872 -0.138908,0.362872 -0.199573,0 -0.46344,-0.163285 -0.586817,-0.362872 -0.123334,-0.199573 -0.06137,-0.362857 0.1382,-0.362857 z m 69.79572,0.03895 c 0.0531,0.0082 0.136994,0.109304 0.261515,0.306162 0.507463,0.802219 -0.17675,1.515669 -0.828487,0.863929 -0.379881,-0.379876 -0.282384,-0.914206 0.121181,-0.664767 0.199575,0.123293 0.36545,0.01097 0.368535,-0.250893 0.0018,-0.177411 0.02416,-0.262578 0.07725,-0.254431 z m -19.1027166,0.125487 c 0.028046,-0.0055 0.063498,-0.0055 0.106301,7.27e-4 0.05708,0.0082 0.1262007,0.02784 0.2069433,0.05884 0.6286238,0.241224 0.7437706,0.501772 0.221829,0.501772 -0.1878171,0 -0.4407972,-0.161323 -0.5627189,-0.358606 -0.071507,-0.11575 -0.056463,-0.185639 0.027648,-0.2027 z m -6.8759584,0.320343 c 0.08068,0.01673 0.132523,0.08544 0.132523,0.197736 0,0.199575 -0.163289,0.464185 -0.362862,0.587515 -0.199567,0.12329 -0.362863,0.0606 -0.362863,-0.1389 0,-0.19957 0.163296,-0.463468 0.362863,-0.586816 0.04989,-0.03086 0.09766,-0.05047 0.141037,-0.05884 0.03252,-0.0069 0.0624,-0.0069 0.08929,-7.27e-4 z m 36.751151,0.285604 c 0.126063,0.0055 0.234535,0.03826 0.294825,0.09848 0.120578,0.12055 -0.09372,0.2064 -0.476257,0.19064 -0.422698,-0.0174 -0.508447,-0.10313 -0.218994,-0.218969 0.130973,-0.05239 0.274368,-0.07529 0.400426,-0.07022 z m -54.927578,0.103547 c 0.260433,-0.01824 0.443509,0.0588 0.327428,0.24664 -0.112527,0.18206 -0.46725,0.33097 -0.788093,0.33097 -0.320842,0 -0.469801,-0.11342 -0.33097,-0.2523 0.193242,-0.19325 0.531205,-0.30702 0.791635,-0.32531 z m 45.342199,0.57761 c 0.299369,0 0.544293,0.16329 0.544293,0.36286 0,0.19957 -0.244932,0.36287 -0.544293,0.36287 -0.299361,0 -0.544294,-0.1633 -0.544294,-0.36287 0,-0.19957 0.244937,-0.36286 0.544294,-0.36286 z m -63.68234,0.40963 c 0.164425,0 0.328849,0.0255 0.453578,0.0758 0.249468,0.10066 0.04535,0.18285 -0.453578,0.18285 -0.498935,0 -0.703045,-0.0822 -0.453577,-0.18285 0.124733,-0.0503 0.289157,-0.0758 0.453577,-0.0758 z m 34.471923,0 c 0.164424,0 0.328847,0.0255 0.453577,0.0758 0.249468,0.10066 0.04535,0.18285 -0.453577,0.18285 -0.498936,0 -0.703046,-0.0822 -0.453578,-0.18285 0.124733,-0.0503 0.289157,-0.0758 0.453578,-0.0758 z m 26.488949,0 c 0.164425,0 0.328852,0.0255 0.453578,0.0758 0.249468,0.10066 0.04535,0.18285 -0.453578,0.18285 -0.4989353,0 -0.7030451,-0.0822 -0.4535773,-0.18285 0.1247332,-0.0503 0.2891573,-0.0758 0.4535773,-0.0758 z m -25.178533,0.44082 c 0.04338,0.007 0.09115,0.0259 0.141032,0.0566 0.199575,0.1233 0.362864,0.29613 0.362864,0.38413 0,0.0881 -0.163289,0.16017 -0.362864,0.16017 -0.199566,0 -0.362861,-0.17277 -0.362861,-0.38413 0,-0.15851 0.09171,-0.23874 0.221829,-0.21686 z m 24.206887,0.31184 c 0.074799,0.01 0.1823491,0.0802 0.3125434,0.21049 0.2361511,0.23616 0.3447958,0.51347 0.2416698,0.61658 -0.1030918,0.10313 -0.296418,0.0784 -0.42948,-0.0546 -0.1330579,-0.13303 -0.2416697,-0.41035 -0.2416739,-0.61657 0,-0.1137 0.042131,-0.16541 0.1169434,-0.15592 z m -30.00418,0.0481 c 0.08068,0.0169 0.132523,0.0854 0.132523,0.19773 0,0.19958 -0.163289,0.46418 -0.362862,0.58752 -0.199567,0.12329 -0.362863,0.0606 -0.362863,-0.1389 0,-0.19957 0.163296,-0.46348 0.362863,-0.58682 0.04991,-0.0309 0.09766,-0.0505 0.141037,-0.0588 0.03252,-0.007 0.0624,-0.007 0.08929,-7.3e-4 z m 52.628504,0.0149 c -0.354778,0 -0.660874,0.12672 -0.917787,0.37986 -0.129328,0.12494 -0.225531,0.26586 -0.288447,0.42239 -0.06292,0.15488 -0.09426,0.32472 -0.09426,0.50958 0,0.29143 0.08599,0.54537 0.257262,0.76187 0.145058,0.17486 0.329094,0.30975 0.552799,0.40467 0.09437,0.0399 0.181831,0.0701 0.262222,0.09 0.08039,0.02 0.170408,0.0298 0.270021,0.0298 l -0.521614,1.01913 h 0.560596 l 1.203396,-2.38553 c 0,-0.33473 -0.127929,-0.62363 -0.38483,-0.86676 -0.131069,-0.12329 -0.271003,-0.21503 -0.419559,-0.27499 -0.148552,-0.0599 -0.308527,-0.09 -0.479802,-0.09 z m -3.658389,0.0503 v 0.50956 h 0.513817 v 3.0574 h 0.51382 v -3.56696 z m 6.532229,0 -1.205523,2.38554 c 0,0.33473 0.127545,0.62361 0.382704,0.86675 0.256906,0.24313 0.557193,0.36429 0.901488,0.36429 0.356524,0 0.662623,-0.12714 0.917787,-0.38201 0.256907,-0.25646 0.385542,-0.56607 0.385542,-0.92912 0,-0.29144 -0.08599,-0.54537 -0.257266,-0.76187 -0.145058,-0.17486 -0.329094,-0.30976 -0.552799,-0.40467 -0.09962,-0.0433 -0.190712,-0.0745 -0.272854,-0.0928 -0.08214,-0.0184 -0.168514,-0.0269 -0.259389,-0.0269 l 0.521615,-1.01914 z m 2.575475,0 -0.500355,1.47838 0.306164,0.30474 c 0.06292,-0.065 0.120496,-0.11575 0.172926,-0.15237 0.155544,-0.10163 0.322802,-0.15237 0.501063,-0.15237 0.195741,0 0.374296,0.0714 0.53508,0.21474 0.178264,0.15987 0.267186,0.35976 0.267186,0.59957 0,0.23981 -0.09218,0.44133 -0.275688,0.60454 -0.162534,0.13988 -0.337826,0.20977 -0.526579,0.20977 -0.188746,0 -0.365127,-0.0606 -0.529408,-0.18214 -0.204478,-0.15987 -0.306873,-0.37117 -0.306873,-0.63429 h -0.474842 c 0,0.40966 0.138464,0.73838 0.414599,0.98652 0.249919,0.22648 0.548735,0.33949 0.896524,0.33949 0.356531,0 0.662627,-0.12714 0.917788,-0.38201 0.25691,-0.25646 0.384834,-0.56607 0.384834,-0.92912 0,-0.29476 -0.07871,-0.54871 -0.236002,-0.76187 -0.136322,-0.17819 -0.310523,-0.31308 -0.523741,-0.40467 -0.09613,-0.0433 -0.186134,-0.0745 -0.27002,-0.0928 -0.08215,-0.0184 -0.173239,-0.0269 -0.272859,-0.0269 -0.05243,0 -0.109634,0.005 -0.170799,0.0149 l -0.151666,0.0277 0.191356,-0.60241 h 1.15875 v -0.45926 z m -113.269039,0.0702 v 3.64705 h 0.500356 v -2.34444 l 1.251591,1.30192 1.251588,-1.30192 v 2.34444 h 0.500355 v -3.64705 l -1.751943,1.82352 z m 4.282059,0 v 1.56271 h -0.37491 v 0.5209 h 0.37491 v 1.56344 h 0.501062 v -1.56344 h 0.753365 l 0.773919,1.56344 h 0.60028 l -0.751238,-1.56344 c 0.27583,0 0.511496,-0.10299 0.707299,-0.30899 0.195804,-0.20773 0.294118,-0.45187 0.294118,-0.73282 0,-0.28434 -0.09987,-0.52848 -0.299078,-0.7328 -0.199212,-0.20602 -0.43332,-0.309 -0.702339,-0.309 z m 3.517356,0 v 1.56271 h -0.375617 v 0.5209 h 0.375617 v 1.56344 h 0.500354 v -1.56344 h 0.375618 l 1.30262,1.56344 h 0.648476 l -1.501769,-1.82353 1.501769,-1.82352 h -0.648476 l -1.30262,1.56271 h -0.375618 v -1.56271 z m 44.137383,0.17718 c 0.159131,-0.021 0.395081,0.0662 0.599573,0.23599 0.272654,0.22629 0.579585,0.32755 0.682493,0.22466 0.102872,-0.10286 0.393906,0.0614 0.646348,0.36571 0.455284,0.54858 0.359001,0.78422 -0.123321,0.30191 -0.138177,-0.1382 -0.604372,-0.30476 -1.036141,-0.37066 -0.921708,-0.14065 -1.223014,-0.37513 -0.898651,-0.69951 0.03204,-0.0321 0.07665,-0.0511 0.129698,-0.0581 z m 55.882926,0.2119 c 0.17302,0 0.334457,0.0601 0.484763,0.18001 0.152045,0.11987 0.24934,0.26458 0.29128,0.43445 l -0.485471,0.96455 -0.09142,0.0248 c -0.03142,0.008 -0.05148,0.0137 -0.06025,0.0149 -0.0088,10e-4 -0.02514,0.004 -0.0496,0.008 -0.02271,0.001 -0.0413,0.003 -0.05528,0.003 h -0.034 c -0.195738,0 -0.373206,-0.0714 -0.532245,-0.21474 -0.178261,-0.15987 -0.267191,-0.35976 -0.267183,-0.59957 0,-0.23981 0.09148,-0.44133 0.27498,-0.60454 0.162534,-0.13988 0.337447,-0.20977 0.524448,-0.20977 z m -62.111827,0.0794 c 0.322947,0 0.486239,0.16329 0.362862,0.36288 -0.123334,0.19957 -0.286622,0.36285 -0.362862,0.36285 -0.0762,0 -0.239486,-0.16328 -0.362863,-0.36285 -0.123334,-0.19959 0.03995,-0.36288 0.362863,-0.36288 z m -25.249406,0.0447 c 0.126064,0.005 0.234537,0.0383 0.294826,0.0985 0.120577,0.12055 -0.09372,0.20641 -0.476256,0.19065 -0.4227,-0.0174 -0.508451,-0.10313 -0.218996,-0.21899 0.130973,-0.0524 0.274368,-0.0753 0.400426,-0.0702 z m -15.67537,0.008 h 1.376326 c 0.131097,0 0.246816,0.0509 0.34727,0.15308 0.102159,0.10218 0.153085,0.22481 0.153085,0.36783 0,0.13618 -0.04937,0.25729 -0.148124,0.36285 -0.09704,0.10561 -0.214318,0.15805 -0.352231,0.15805 h -1.376326 z m 35.995661,0.35507 c 0.126064,0.005 0.234536,0.0383 0.294826,0.0985 0.120578,0.12055 -0.09372,0.2064 -0.476258,0.19065 -0.422698,-0.0174 -0.508442,-0.10314 -0.218994,-0.219 0.130974,-0.0524 0.274368,-0.0753 0.400426,-0.0702 z m 69.993451,0.53225 c 0.197488,0 0.376045,0.0716 0.535081,0.21474 0.178266,0.15987 0.267187,0.35977 0.267187,0.59957 0,0.23981 -0.09148,0.44133 -0.274985,0.60453 -0.157295,0.13989 -0.333293,0.20978 -0.527283,0.20978 -0.17302,0 -0.334461,-0.0594 -0.484763,-0.17931 -0.150301,-0.11986 -0.246502,-0.26527 -0.288445,-0.43514 l 0.484761,-0.96386 0.09213,-0.0255 c 0.06816,-0.0166 0.133401,-0.0248 0.196316,-0.0248 z m -91.51289,0.27356 c 0.04338,0.007 0.09115,0.0259 0.141035,0.0566 0.199574,0.12329 0.362861,0.29611 0.362861,0.38413 0,0.088 -0.163287,0.16017 -0.362861,0.16017 -0.199568,0 -0.362862,-0.17278 -0.362862,-0.38413 0,-0.15851 0.09171,-0.23874 0.221827,-0.21687 z m 7.367808,0.28278 c 0.126064,0.005 0.234536,0.0383 0.294826,0.0985 0.120578,0.12055 -0.09372,0.2064 -0.476257,0.19064 -0.422699,-0.0174 -0.508443,-0.10313 -0.218995,-0.21899 0.130974,-0.0524 0.274368,-0.0753 0.400426,-0.0702 z m 59.56116,0.68107 c 0.21133,0 0.283544,0.16329 0.160167,0.36286 -0.123334,0.19959 -0.296092,0.36287 -0.384122,0.36287 -0.08799,0 -0.1601674,-0.16328 -0.1601715,-0.36287 0,-0.19957 0.1727585,-0.36286 0.3841265,-0.36286 z m -12.5095374,0.89015 c 0.028046,-0.005 0.063498,-0.005 0.1063146,7.3e-4 0.05708,0.008 0.1262007,0.0278 0.2069433,0.0588 0.6286225,0.24122 0.7437707,0.50177 0.221829,0.50177 -0.1878171,0 -0.4407985,-0.16133 -0.5627202,-0.35862 -0.071507,-0.11575 -0.056463,-0.18563 0.027648,-0.20269 z m -21.2883966,0.60595 c 0.126064,0.005 0.234536,0.0383 0.294826,0.0985 0.120578,0.12055 -0.09372,0.2064 -0.476257,0.19065 -0.422699,-0.0174 -0.508451,-0.10314 -0.218995,-0.219 0.130974,-0.0524 0.274367,-0.0753 0.400426,-0.0702 z m -16.821362,3.22111 c 0.311119,0 0.464976,0.1633 0.341599,0.36287 -0.123334,0.19957 -0.377736,0.36286 -0.565553,0.36286 -0.187782,0 -0.341599,-0.16329 -0.341604,-0.36286 0,-0.19957 0.254404,-0.36287 0.565558,-0.36287 z m 9.972335,0.77676 c 0.130027,0.01 0.264534,0.0831 0.401841,0.2204 0.314058,0.31404 0.225489,0.40261 -0.358609,0.35861 -0.510766,-0.0384 -0.652876,-0.18056 -0.416725,-0.41671 0.118054,-0.11809 0.243465,-0.17209 0.373493,-0.1623 z m 12.534342,1.07937 c 0.0501,0.004 0.114173,0.0186 0.191353,0.0468 0.277263,0.1008 0.463074,0.36726 0.41318,0.59178 -0.04989,0.22452 0.14475,0.40821 0.432318,0.40821 0.287605,0 0.623655,0.1633 0.746985,0.36287 0.123376,0.19957 0.17363,0.34042 0.111979,0.31325 -0.06169,-0.0272 -0.520196,-0.12233 -1.019136,-0.21191 -1.000516,-0.17949 -1.89277,-0.82707 -1.139611,-0.82707 0.251245,0 0.342741,-0.18488 0.203402,-0.41035 -0.116395,-0.1883 -0.09076,-0.2844 0.05953,-0.27356 z m -12.549226,0.24024 c 1.912363,0 2.001734,0.0435 1.248758,0.61305 -0.905415,0.6848 -1.413244,0.68829 -1.974484,0.0123 -0.478542,-0.57662 -0.422444,-0.62509 0.725726,-0.62509 z m 18.004208,0.44366 c 0.299363,0 0.443716,0.16328 0.320339,0.36286 -0.123334,0.19957 -0.469595,0.36287 -0.768956,0.36287 -0.299361,0 -0.44296,-0.1633 -0.319631,-0.36287 0.123375,-0.19958 0.468887,-0.36286 0.768248,-0.36286 z m -2.220405,1.10914 c 0.305614,-0.0187 0.585686,0.1244 0.763288,0.43303 0.143548,0.24946 0.136061,0.34105 -0.01629,0.20411 -0.152331,-0.13701 -0.692451,-0.0904 -1.200567,0.10272 -0.807658,0.30705 -0.866076,0.28109 -0.462791,-0.20483 0.279205,-0.33641 0.610759,-0.51646 0.916369,-0.53507 z m -17.924833,0.39262 c 0.03665,-0.004 0.124144,0.0302 0.253721,0.10492 0.363044,0.2095 0.373444,0.38938 0.04607,0.78385 -0.233721,0.28159 -0.506169,0.5124 -0.605956,0.5124 -0.09979,0 2.14e-4,-0.21906 0.22254,-0.48689 0.22229,-0.26783 0.283301,-0.62053 0.135362,-0.78384 -0.07399,-0.0816 -0.08839,-0.1259 -0.05173,-0.13042 z m 9.119043,0.0149 c 0.138435,0.0187 0.167813,0.16595 0.07158,0.41673 -0.128779,0.33558 0.04389,0.60864 0.45287,0.71439 0.428324,0.11067 0.300306,0.18536 -0.362862,0.21261 -0.773405,0.0318 -0.99573,-0.10601 -0.907155,-0.56272 0.06451,-0.33272 0.321651,-0.67309 0.57122,-0.7562 0.06989,-0.0233 0.128203,-0.031 0.174345,-0.0248 z m 7.506007,1.06804 c 0.126064,0.005 0.234536,0.0383 0.294826,0.0985 0.120578,0.12055 -0.09372,0.20641 -0.476257,0.19065 -0.422699,-0.0174 -0.508451,-0.10313 -0.218995,-0.21899 0.130974,-0.0524 0.274367,-0.0753 0.400426,-0.0702 z m -48.550556,7.0659 v 11.5315 l 46.035324,31.4613 46.035324,-31.4613 v -11.52584 c -1.630753,0.34256 -3.261512,0.68509 -4.892261,1.02764 -0.614443,0.12905 -1.228932,0.2579 -1.84337,0.38697 l 1.84337,1.15379 v 2.45073 l -5.387657,-2.85966 c -0.497774,0.1045 -0.995499,0.20939 -1.493262,0.31395 l 6.880919,5.19277 v 0.92415 l -1.066621,0.7392 -9.410321,-6.10133 c -0.234152,0.0492 -0.468188,0.0989 -0.702339,0.14812 l 8.128257,7.32954 -1.742022,1.20764 -9.9772943,-7.7831 c -0.056449,0.0123 -0.1129388,0.0236 -0.1693849,0.0354 l 8.3649672,8.98297 -1.76399,1.22324 -9.3160647,-8.67467 7.6619217,9.82138 -1.776748,1.23173 -8.2090529,-9.10345 6.617985,10.20694 -1.7802934,1.23386 -7.32173943,-9.70161 5.73350923,10.80295 -1.7767482,1.23175 -6.5832599,-10.51804 4.9383285,11.65836 -1.76540901,1.22466 -5.92202569,-11.60095 4.15661392,12.8249 -1.74485652,1.20907 -5.2622124,-12.99642 3.3033222,14.35503 -1.7094237,1.18498 -4.5230207,-14.75546 2.2799363,16.31109 -1.6548473,1.14741 -3.612324,-16.93193 0.969522,18.76396 -1.571221,1.08929 -2.419555,-19.58889 -0.777462,21.80575 -0.73919,0.5124 -0.73919,-0.5124 -0.777461,-21.80575 -2.419556,19.58889 -1.571219,-1.08929 0.969521,-18.76396 -3.612323,16.93193 -1.654849,-1.14741 2.279937,-16.31109 -4.523021,14.75546 -1.709422,-1.18498 3.30332,-14.35503 -5.262211,12.99642 -1.744856,-1.20907 4.156613,-12.8249 -5.922026,11.60095 -1.765408,-1.22466 4.938327,-11.65836 -6.583258,10.51804 -1.776748,-1.23175 5.733507,-10.80295 -7.321738,9.70161 -1.780293,-1.23386 6.617985,-10.20694 -8.209053,9.10345 -1.776748,-1.23173 7.661922,-9.82138 -9.316067,8.67467 -1.763989,-1.22324 8.349375,-8.96596 c -0.05812,-0.0123 -0.116217,-0.0247 -0.174346,-0.0369 l -9.956742,7.76749 -1.742022,-1.20764 8.112666,-7.31538 c -0.235741,-0.0496 -0.471561,-0.0992 -0.707298,-0.14883 l -9.389771,6.08788 -1.066619,-0.7392 v -0.92417 l 6.866037,-5.18141 c -0.498265,-0.10533 -0.996424,-0.21135 -1.494681,-0.3168 l -5.371356,2.85117 v -2.45074 l 1.835575,-1.14883 c -0.61188,-0.1296 -1.223695,-0.2594 -1.835575,-0.38908 -1.630748,-0.34562 -3.261491,-0.69076 -4.892263,-1.03615 z"
       id="path915" />
  </g>
</svg>
